<?xml version="1.0" encoding="UTF-8" standalone="no"?><!DOCTYPE svg PUBLIC "-//W3C//DTD SVG 1.1//EN" "http://www.w3.org/Graphics/SVG/1.1/DTD/svg11.dtd"><svg width="100%" height="100%" viewBox="0 0 8100 6421" version="1.1" xmlns="http://www.w3.org/2000/svg" xmlns:xlink="http://www.w3.org/1999/xlink" xml:space="preserve" xmlns:serif="http://www.serif.com/" style="fill-rule:evenodd;clip-rule:evenodd;stroke-linejoin:round;stroke-miterlimit:2;"><path d="M760.892,142.086c-0,0 -890.454,462.423 -4.283,783.506c0,0 78.851,-667.794 650.31,-433.17c0,0 188.447,-112.684 346.921,-51.109c-0,-0 560.377,9.492 607.874,271.111c-0,-0 714.344,-224.106 1003.32,-170.428c0,-0 -43.743,-383.668 -158.181,-538.825c0,-0 322.344,66.65 530.051,577.935c0,0 1298.95,400.994 1300.23,400.994c1.284,-0 888.414,-145.611 1158.93,-38.547c0,-0 314.03,151.949 470.387,229.265c184.056,91.013 471.141,154.897 633.952,316.814c162.811,161.916 343.994,260.951 342.912,654.683l157.574,1054.56c0,0 4.913,279.222 -57.067,657.682c-61.979,378.46 28.719,728.857 28.719,728.857c-0,-0 294.823,202.759 327.423,585.53c-0,-0 -437.783,-31.719 -428.894,-410.579c0,0 -64.131,-278.581 -83.226,-591.594c0,0 67.616,-497.087 62.663,-691.543l-4.309,-637.166c0,0 -132.498,993.56 -195.684,1272.23c-0,0 -42.021,352.215 58.394,389.299c-0,0 195.56,127.778 60.373,453.557c-0,-0 -212.72,647.814 -210.934,955.131c-0,0 -7.819,154.135 -104.147,194.745c-0,0 -113.069,14.932 -204.363,292.199l-571.282,-0c0,-0 -58.631,17.823 -61.232,-79.976c-0,0 9.816,-139.915 56.105,-207.176c0,0 -160.583,85.485 -183.505,281.653l-598.081,-0c-0,-0 -76.84,-10.662 -56.213,-100.925c0,0 -1.428,-206.279 312.35,-392.241c0,-0 258.241,-836.54 346.455,-1140.07c0,0 28.413,-250.97 -147.385,-380.684c-0,-0 -102.415,-10.985 -344.365,-387.196c-0,-0 -725.36,246.442 -1875.41,-46.177c0,-0 -108.066,376.035 -96.138,560.714c0,-0 -12.078,344.547 -66.706,466.556c0,0 -17.599,484.479 139.441,747.989c0,0 -102.386,173.775 -144.414,343.083c0,-0 18.904,122.328 -23.197,195.632l-272.916,162.002l-516.257,-0c0,-0 -47.955,7.185 -54.093,-91.839c0,0 -8.927,-295.124 231.674,-431.327c-0,0 190.369,-867.417 -335.734,-1640.59c0,-0 -167.561,-318.865 -174.87,-452.63c0,-0 -281.536,-288.144 -453.993,-695.728c-0,-0 -100.941,-161.39 -159.797,-204.713c0,-0 -172.035,-201.655 -214.781,-301.035c-0,-0 -304.911,-428.689 -479.189,-350.546c-0,-0 -377.012,177.186 -803.702,-36.339c-0,-0 -166.6,-136.142 38.057,-498.702l182.733,-245.074c0,0 -136.385,46.708 -377.865,-115.269c10.469,27.803 -528.596,-319.042 -279.717,-959.159c-26.829,31.243 317.287,-445.759 695.088,-255.38Z" style="fill:#fff;"/></svg>